<svg width="32" height="30" viewBox="0 0 32 30" fill="none" xmlns="http://www.w3.org/2000/svg">
<path d="M22 7.5V8H22.5H29.375C29.7397 8 30.0894 8.14487 30.3473 8.40273C30.6051 8.66059 30.75 9.01033 30.75 9.375V28.125C30.75 28.4897 30.6051 28.8394 30.3473 29.0973C30.0894 29.3551 29.7397 29.5 29.375 29.5H1.875C1.51033 29.5 1.16059 29.3551 0.902728 29.0973C0.644866 28.8394 0.5 28.4897 0.5 28.125V9.375C0.5 9.01033 0.644866 8.66059 0.902728 8.40273C1.16059 8.14487 1.51033 8 1.875 8H8.75H9.25V7.5V6.875C9.25 5.18425 9.92165 3.56274 11.1172 2.36719C12.3127 1.17165 13.9342 0.5 15.625 0.5C17.3158 0.5 18.9373 1.17165 20.1328 2.36719C21.3284 3.56274 22 5.18424 22 6.875V7.5ZM21.25 8H21.75V7.5V6.875C21.75 5.25055 21.1047 3.69263 19.956 2.54397C18.8074 1.39531 17.2495 0.75 15.625 0.75C14.0006 0.75 12.4426 1.39531 11.294 2.54397C10.1453 3.69263 9.5 5.25055 9.5 6.875V7.5V8H10H21.25ZM9.25 8.75V8.25H8.75H1.875C1.57663 8.25 1.29048 8.36852 1.0795 8.5795C0.868527 8.79048 0.75 9.07663 0.75 9.375V28.125C0.75 28.4234 0.868527 28.7095 1.0795 28.9205C1.29048 29.1315 1.57663 29.25 1.875 29.25H29.375C29.6734 29.25 29.9595 29.1315 30.1705 28.9205C30.3815 28.7095 30.5 28.4234 30.5 28.125V9.375C30.5 9.07663 30.3815 8.79048 30.1705 8.57951C29.9595 8.36852 29.6734 8.25 29.375 8.25H22.5H22V8.75V11.875C22 11.9082 21.9868 11.9399 21.9634 11.9634C21.9399 11.9868 21.9082 12 21.875 12C21.8418 12 21.8101 11.9868 21.7866 11.9634C21.7632 11.9399 21.75 11.9082 21.75 11.875V8.75V8.25H21.25H10H9.5V8.75V11.875C9.5 11.9082 9.48683 11.9399 9.46339 11.9634C9.43995 11.9868 9.40815 12 9.375 12C9.34185 12 9.31005 11.9868 9.28661 11.9634C9.26317 11.9399 9.25 11.9082 9.25 11.875V8.75Z" fill="#817D6F" stroke="#012611"/>
</svg>
