<svg width="25" height="25" viewBox="0 0 25 25" fill="none" xmlns="http://www.w3.org/2000/svg">
<path d="M12.5 23.5769H12.5006C15.4372 23.5736 18.2526 22.4055 20.3291 20.3291C22.4056 18.2526 23.5736 15.4372 23.5769 12.5006V12.5C23.5769 10.3092 22.9273 8.16758 21.7101 6.34599C20.493 4.5244 18.763 3.10464 16.739 2.26626C14.7149 1.42787 12.4877 1.20851 10.339 1.63592C8.19029 2.06332 6.21657 3.1183 4.66744 4.66743C3.1183 6.21657 2.06333 8.19029 1.63592 10.339C1.20852 12.4877 1.42788 14.7149 2.26626 16.739C3.10465 18.763 4.52441 20.493 6.34599 21.7101C8.16759 22.9273 10.3092 23.5769 12.5 23.5769ZM16.7155 15.6625L16.7155 15.6626C16.0518 16.5471 15.1266 17.2003 14.071 17.5299C13.0155 17.8594 11.883 17.8484 10.834 17.4986C9.78497 17.1488 8.8726 16.4778 8.22608 15.5807C7.57957 14.6836 7.23167 13.6058 7.23167 12.5C7.23167 11.3942 7.57957 10.3164 8.22608 9.4193C8.8726 8.52219 9.78497 7.85121 10.834 7.50138C11.883 7.15156 13.0155 7.14063 14.071 7.47014C15.1266 7.79965 16.0518 8.45289 16.7155 9.33736L16.7155 9.33746C16.752 9.38597 16.7785 9.44117 16.7935 9.49992C16.8086 9.55868 16.812 9.61982 16.8034 9.67988C16.7949 9.73993 16.7746 9.79771 16.7437 9.84992C16.7128 9.90213 16.672 9.94774 16.6235 9.98416C16.575 10.0206 16.5198 10.0471 16.461 10.0622C16.4023 10.0773 16.3411 10.0806 16.2811 10.0721C16.221 10.0635 16.1632 10.0432 16.111 10.0124C16.0588 9.98147 16.0132 9.94061 15.9768 9.89211C15.4295 9.16246 14.6665 8.62349 13.7959 8.35154C12.9252 8.07955 11.991 8.08842 11.1256 8.37687C10.2603 8.66533 9.50758 9.21876 8.97422 9.95876C8.44086 10.6988 8.15385 11.5878 8.15385 12.5C8.15385 13.4122 8.44086 14.3012 8.97422 15.0412C9.50758 15.7812 10.2603 16.3347 11.1256 16.6231C11.991 16.9116 12.9252 16.9204 13.7959 16.6485C14.6666 16.3765 15.4296 15.8374 15.9769 15.1077C16.0505 15.0098 16.1599 14.9452 16.2811 14.9279C16.4023 14.9107 16.5255 14.9423 16.6235 15.0158C16.7214 15.0894 16.7862 15.1988 16.8034 15.3201C16.8207 15.4414 16.7891 15.5646 16.7155 15.6625ZM5.83316 2.52236C7.80648 1.20384 10.1264 0.500054 12.4997 0.5C15.6813 0.503426 18.7317 1.76884 20.9814 4.01858C23.2312 6.26839 24.4966 9.31882 24.5 12.5005C24.4999 14.8737 23.7961 17.1936 22.4776 19.1668C21.1591 21.1402 19.2849 22.6783 17.0922 23.5865C14.8995 24.4948 12.4867 24.7324 10.1589 24.2694C7.83115 23.8064 5.69295 22.6635 4.01472 20.9853C2.33649 19.307 1.1936 17.1689 0.730582 14.8411C0.26756 12.5133 0.5052 10.1005 1.41345 7.9078C2.3217 5.71508 3.85977 3.84094 5.83316 2.52236Z" fill="#597053" stroke="white"/>
</svg>
