<svg width="37" height="37" viewBox="0 0 37 37" fill="none" xmlns="http://www.w3.org/2000/svg">
<path d="M18.4997 26.278C20.5625 26.278 22.5408 25.4585 23.9994 23.9999C25.458 22.5413 26.2775 20.563 26.2775 18.5002C26.2775 16.4374 25.458 14.4591 23.9994 13.0005C22.5408 11.5419 20.5625 10.7224 18.4997 10.7224C16.4369 10.7224 14.4586 11.5419 13 13.0005C11.5414 14.4591 10.7219 16.4374 10.7219 18.5002C10.7219 20.563 11.5414 22.5413 13 23.9999C14.4586 25.4585 16.4369 26.278 18.4997 26.278Z" stroke="#F2F2F2" stroke-width="1.5" stroke-linecap="round" stroke-linejoin="round"/>
<path d="M1 26.2778V10.7222C1 8.14373 2.0243 5.67084 3.84757 3.84757C5.67084 2.0243 8.14373 1 10.7222 1H26.2778C28.8563 1 31.3292 2.0243 33.1524 3.84757C34.9757 5.67084 36 8.14373 36 10.7222V26.2778C36 28.8563 34.9757 31.3292 33.1524 33.1524C31.3292 34.9757 28.8563 36 26.2778 36H10.7222C8.14373 36 5.67084 34.9757 3.84757 33.1524C2.0243 31.3292 1 28.8563 1 26.2778Z" stroke="#F2F2F2" stroke-width="1.5"/>
<path d="M29.1943 7.82486L29.2138 7.80347" stroke="#F2F2F2" stroke-width="1.5" stroke-linecap="round" stroke-linejoin="round"/>
</svg>
