<svg width="30" height="30" viewBox="0 0 30 30" fill="none" xmlns="http://www.w3.org/2000/svg">
<path d="M28.3906 29.7498C29.1625 30.5216 30.3538 29.3303 29.582 28.5752L23.2897 22.2662C25.4969 19.824 26.717 16.6482 26.7127 13.3564C26.7127 5.99023 20.7225 0 13.3564 0C5.99023 0 0 5.99023 0 13.3564C0 20.7225 5.99023 26.7127 13.3564 26.7127C16.6787 26.7127 19.7493 25.4878 22.0984 23.4575L28.3906 29.7498ZM1.67626 13.3564C1.67626 6.91309 6.92819 1.67793 13.3547 1.67793C19.7979 1.67793 25.0331 6.91309 25.0331 13.3564C25.0331 19.7996 19.7979 25.0348 13.3547 25.0348C6.92819 25.0348 1.67626 19.7996 1.67626 13.3564Z" fill="#012611"/>
</svg>
