<svg width="31" height="35" viewBox="0 0 31 35" fill="none" xmlns="http://www.w3.org/2000/svg">
<path d="M24.1889 5.48333C22.8597 3.96593 22.1272 2.01723 22.1278 0H16.1194V24.1111C16.0731 25.4159 15.5223 26.6518 14.5829 27.5585C13.6435 28.4652 12.3889 28.972 11.0833 28.9722C8.32222 28.9722 6.02778 26.7167 6.02778 23.9167C6.02778 20.5722 9.25556 18.0639 12.5806 19.0944V12.95C5.87222 12.0556 0 17.2667 0 23.9167C0 30.3917 5.36667 35 11.0639 35C17.1694 35 22.1278 30.0417 22.1278 23.9167V11.6861C24.5642 13.4358 27.4893 14.3746 30.4889 14.3694V8.36111C30.4889 8.36111 26.8333 8.53611 24.1889 5.48333Z" fill="#F2F2F2"/>
</svg>
